<svg width="72" height="73" viewBox="0 0 72 73" fill="none" xmlns="http://www.w3.org/2000/svg">
<path d="M11.7001 0.5C8.59703 0.5 5.62107 1.73271 3.42688 3.92696C1.23268 6.12121 0 9.09725 0 12.2004V53.6017C0 56.7049 1.23268 59.6809 3.42688 61.8751C5.62107 64.0694 8.59703 65.3021 11.7001 65.3021H28.9586C29.2898 63.5668 30.1214 61.9108 31.4642 60.5716L32.1338 59.9019H11.7001C10.0292 59.9019 8.42677 59.2382 7.24528 58.0566C6.0638 56.8751 5.40004 55.2726 5.40004 53.6017V20.3006H59.4005V29.4161C60.0197 29.4881 60.6341 29.5901 61.2437 29.7221C62.9357 30.0894 64.1741 31.2054 64.8005 32.5698V12.2004C64.8005 9.09725 63.5678 6.12121 61.3736 3.92696C59.1794 1.73271 56.2035 0.5 53.1004 0.5H11.7001ZM46.7788 32.6598L40.6083 26.4928C40.3611 26.2276 40.063 26.0148 39.7318 25.8672C39.4006 25.7196 39.0431 25.6403 38.6806 25.6339C38.318 25.6275 37.9579 25.6942 37.6217 25.83C37.2855 25.9658 36.9801 26.1679 36.7237 26.4243C36.4674 26.6807 36.2652 26.9861 36.1294 27.3223C35.9936 27.6585 35.9269 28.0186 35.9333 28.3812C35.9397 28.7437 36.0191 29.1013 36.1667 29.4325C36.3142 29.7637 36.527 30.0618 36.7923 30.309L42.8799 36.4004C43.9877 34.9668 45.3015 33.7087 46.7788 32.6598ZM28.0082 30.3054C28.2735 30.0582 28.4863 29.7601 28.6338 29.4289C28.7814 29.0977 28.8608 28.7401 28.8672 28.3776C28.8735 28.015 28.8069 27.6549 28.6711 27.3187C28.5353 26.9825 28.3331 26.6771 28.0768 26.4207C27.8204 26.1643 27.515 25.9622 27.1788 25.8264C26.8426 25.6906 26.4825 25.6239 26.1199 25.6303C25.7574 25.6367 25.3999 25.716 25.0687 25.8636C24.7375 26.0112 24.4394 26.224 24.1922 26.4892L13.3921 37.2896C12.8865 37.7959 12.6025 38.4821 12.6025 39.1977C12.6025 39.9132 12.8865 40.5994 13.3921 41.1057L24.1922 51.9061C24.4394 52.1713 24.7375 52.3841 25.0687 52.5317C25.3999 52.6793 25.7574 52.7586 26.1199 52.765C26.4825 52.7714 26.8426 52.7047 27.1788 52.5689C27.515 52.4331 27.8204 52.231 28.0768 51.9746C28.3331 51.7182 28.5353 51.4128 28.6711 51.0766C28.8069 50.7404 28.8735 50.3803 28.8672 50.0177C28.8608 49.6552 28.7814 49.2976 28.6338 48.9664C28.4863 48.6352 28.2735 48.3371 28.0082 48.0899L19.1161 39.1977L28.0082 30.3054ZM60.4769 33.2359C61.7477 33.5131 62.0609 35.0611 61.1429 35.9791L54.2848 42.8338C53.2536 43.865 52.6743 45.2636 52.6743 46.7219C52.6743 48.1802 53.2536 49.5788 54.2848 50.61C55.316 51.6412 56.7146 52.2205 58.1728 52.2205C59.6311 52.2205 61.0297 51.6412 62.0609 50.61L68.9189 43.7554C69.8369 42.8374 71.3849 43.1506 71.6621 44.4214C72.236 47.0491 72.0765 49.7841 71.201 52.3272C70.3255 54.8704 68.7677 57.1239 66.6979 58.8415C64.6281 60.5591 62.126 61.6745 59.465 62.066C56.8041 62.4575 54.0867 62.1099 51.61 61.0612L41.7855 70.8895C40.7544 71.9207 39.3558 72.5 37.8975 72.5C36.4392 72.5 35.0406 71.9207 34.0095 70.8895C32.9783 69.8583 32.399 68.4597 32.399 67.0014C32.399 65.543 32.9783 64.1444 34.0095 63.1132L43.8375 53.2849C42.7875 50.8081 42.4388 48.0903 42.8297 45.4286C43.2206 42.767 44.336 40.2642 46.0539 38.1939C47.7717 36.1237 50.0259 34.5658 52.5697 33.6907C55.1135 32.8156 57.849 32.657 60.4769 33.2323" fill="#67C5EC"/>
</svg>
