<svg width="26" height="18" viewBox="0 0 26 18" fill="none" xmlns="http://www.w3.org/2000/svg">
<path d="M17 6.33333L23.0707 3.29867C23.2739 3.19711 23.4997 3.14917 23.7267 3.1594C23.9536 3.16962 24.1742 3.23766 24.3675 3.35707C24.5608 3.47649 24.7203 3.6433 24.831 3.8417C24.9417 4.04009 24.9999 4.26348 25 4.49067V13.5093C24.9999 13.7365 24.9417 13.9599 24.831 14.1583C24.7203 14.3567 24.5608 14.5235 24.3675 14.6429C24.1742 14.7623 23.9536 14.8304 23.7267 14.8406C23.4997 14.8508 23.2739 14.8029 23.0707 14.7013L17 11.6667V6.33333ZM1 3.66667C1 2.95942 1.28095 2.28115 1.78105 1.78105C2.28115 1.28095 2.95942 1 3.66667 1H14.3333C15.0406 1 15.7189 1.28095 16.219 1.78105C16.719 2.28115 17 2.95942 17 3.66667V14.3333C17 15.0406 16.719 15.7189 16.219 16.219C15.7189 16.719 15.0406 17 14.3333 17H3.66667C2.95942 17 2.28115 16.719 1.78105 16.219C1.28095 15.7189 1 15.0406 1 14.3333V3.66667Z" fill="white" stroke="white" stroke-width="1.5" stroke-linecap="round" stroke-linejoin="round"/>
</svg>
