<svg width="78" height="73" viewBox="0 0 78 73" fill="none" xmlns="http://www.w3.org/2000/svg">
<path d="M14.0864 0.5C10.4831 0.5 7.02731 1.92228 4.47936 4.45396C1.93142 6.98563 0.5 10.4193 0.5 13.9997V49.9987C0.5 53.579 1.93142 57.0127 4.47936 59.5444C7.02731 62.0761 10.4831 63.4984 14.0864 63.4984H33.2025L34.1626 59.696C34.2229 59.462 34.2879 59.2295 34.3573 58.9985H14.0864C11.6842 58.9985 9.38034 58.0503 7.68171 56.3625C5.98308 54.6747 5.0288 52.3856 5.0288 49.9987V18.4995H59.3744V31.7472L59.8409 31.2837C61.0455 30.0867 62.4268 29.1688 63.9032 28.5433V13.9997C63.9032 10.4193 62.4718 6.98563 59.9238 4.45396C57.3759 1.92228 53.9201 0.5 50.3168 0.5H14.0864ZM28.1438 23.6564C28.3547 23.8654 28.522 24.1137 28.6361 24.387C28.7503 24.6604 28.809 24.9534 28.809 25.2494C28.809 25.5453 28.7503 25.8383 28.6361 26.1117C28.522 26.385 28.3547 26.6333 28.1438 26.8423L18.4205 36.4991L28.1438 46.1558C28.569 46.5783 28.8079 47.1513 28.8079 47.7488C28.8079 48.3463 28.569 48.9193 28.1438 49.3417C27.7186 49.7642 27.1419 50.0016 26.5406 50.0016C25.9393 50.0016 25.3626 49.7642 24.9374 49.3417L13.6154 38.092C13.4045 37.883 13.2372 37.6347 13.1231 37.3614C13.0089 37.0881 12.9502 36.795 12.9502 36.4991C12.9502 36.2031 13.0089 35.9101 13.1231 35.6367C13.2372 35.3634 13.4045 35.1151 13.6154 34.9061L24.9374 23.6564C25.1477 23.4469 25.3976 23.2806 25.6727 23.1672C25.9478 23.0538 26.2428 22.9954 26.5406 22.9954C26.8384 22.9954 27.1334 23.0538 27.4085 23.1672C27.6836 23.2806 27.9335 23.4469 28.1438 23.6564ZM39.4658 23.6564C39.0406 23.2339 38.4639 22.9966 37.8626 22.9966C37.2613 22.9966 36.6846 23.2339 36.2594 23.6564C35.8342 24.0789 35.5953 24.6519 35.5953 25.2494C35.5953 25.8468 35.8342 26.4198 36.2594 26.8423L45.9827 36.4991L36.2594 46.1558C36.0489 46.365 35.8819 46.6134 35.7679 46.8867C35.654 47.16 35.5953 47.4529 35.5953 47.7488C35.5953 48.0446 35.654 48.3376 35.7679 48.6109C35.8819 48.8842 36.0489 49.1325 36.2594 49.3417C36.4699 49.5509 36.7199 49.7169 36.995 49.8301C37.27 49.9433 37.5649 50.0016 37.8626 50.0016C38.1603 50.0016 38.4552 49.9433 38.7302 49.8301C39.0053 49.7169 39.2553 49.5509 39.4658 49.3417L50.7878 38.092C50.9987 37.883 51.166 37.6347 51.2801 37.3614C51.3943 37.0881 51.453 36.795 51.453 36.4991C51.453 36.2031 51.3943 35.9101 51.2801 35.6367C51.166 35.3634 50.9987 35.1151 50.7878 34.9061L39.4658 23.6564ZM41.1686 56.1951L63.0427 34.4606C63.8295 33.6794 64.7635 33.0598 65.7914 32.6373C66.8192 32.2147 67.9207 31.9974 69.033 31.9978C70.1453 31.9983 71.2467 32.2164 72.2742 32.6397C73.3016 33.063 74.2352 33.6833 75.0214 34.4651C75.8076 35.2469 76.4312 36.1749 76.8565 37.1962C77.2817 38.2174 77.5004 39.3119 77.5 40.4172C77.4996 41.5224 77.2801 42.6167 76.854 43.6376C76.428 44.6585 75.8037 45.5861 75.0169 46.3673L53.1428 68.0973C51.8681 69.3634 50.2716 70.2623 48.5234 70.6982L41.7393 72.3811C41.0647 72.5482 40.3581 72.539 39.6881 72.3545C39.0182 72.1701 38.4076 71.8165 37.9158 71.3283C37.424 70.8401 37.0677 70.2338 36.8814 69.5683C36.6951 68.9028 36.6852 68.2007 36.8527 67.5303L38.551 60.7894C38.9896 59.0524 39.8943 57.4661 41.1686 56.1996" fill="#67C5EC"/>
</svg>
