<svg width="74" height="63" viewBox="0 0 74 63" fill="none" xmlns="http://www.w3.org/2000/svg">
<mask id="mask0_10_397" style="mask-type:luminance" maskUnits="userSpaceOnUse" x="0" y="0" width="74" height="63">
<path d="M38.75 58.625H7.25C5.85761 58.625 4.52226 58.0719 3.53769 57.0873C2.55312 56.1027 2 54.7674 2 53.375V7.875C2 6.48261 2.55312 5.14725 3.53769 4.16269C4.52226 3.17812 5.85761 2.625 7.25 2.625H66.75C68.1424 2.625 69.4777 3.17812 70.4623 4.16269C71.4469 5.14725 72 6.48261 72 7.875V32.2717" stroke="white" stroke-width="4" stroke-linecap="round" stroke-linejoin="round"/>
<path d="M2 7.875C2 6.48261 2.55312 5.14725 3.53769 4.16269C4.52226 3.17812 5.85761 2.625 7.25 2.625H66.75C68.1424 2.625 69.4777 3.17812 70.4623 4.16269C71.4469 5.14725 72 6.48261 72 7.875V23.625H2V7.875Z" fill="white" stroke="white" stroke-width="4"/>
<path d="M51 49.875H72M61.5 39.375V60.375" stroke="white" stroke-width="4" stroke-linecap="round" stroke-linejoin="round"/>
<path d="M9 13.125C9 11.192 10.567 9.62501 12.5 9.62501C14.433 9.62501 16 11.192 16 13.125C16 15.058 14.433 16.625 12.5 16.625C10.567 16.625 9 15.058 9 13.125Z" fill="black"/>
<path d="M19.5 13.125C19.5 11.192 21.067 9.62501 23 9.62501C24.933 9.62501 26.5 11.192 26.5 13.125C26.5 15.058 24.933 16.625 23 16.625C21.067 16.625 19.5 15.058 19.5 13.125Z" fill="black"/>
</mask>
<g mask="url(#mask0_10_397)">
<path d="M-5 -11.375H79V72.625H-5V-11.375Z" fill="#67C5EC"/>
</g>
</svg>
